<svg xmlns="http://www.w3.org/2000/svg"  viewBox="0 0 64 64" width="64px" height="64px"><g data-name="Color copy 2"><path fill="#a8dba8" d="M61,47l-6.94-1.633A32.742,32.742,0,0,0,34.4,46.838l-.312.125A32.732,32.732,0,0,1,13.5,48.2L9,47V11l4.5,1.2a32.732,32.732,0,0,0,20.594-1.236l.312-.125A32.742,32.742,0,0,1,54.06,9.367L61,11Z"/><path fill="#fff" d="M36.487,15.8,34,15l-3.026,3.178A29.484,29.484,0,0,1,14,27h0l1.645,3.643A21.026,21.026,0,0,0,34,43h0l2.891-3.036A35.532,35.532,0,0,1,54,30h0A31.155,31.155,0,0,0,36.487,15.8Z"/><path fill="#fff" d="M7,3H7A2,2,0,0,1,9,5V61a0,0,0,0,1,0,0H5a0,0,0,0,1,0,0V5A2,2,0,0,1,7,3Z"/><circle cx="34" cy="29" r="6" fill="#79bd9a"/><path fill="#cff09e" d="M39.84,37.2a34.913,34.913,0,0,0-2.95,2.76L34,43A21.015,21.015,0,0,1,15.65,30.64L14,27a29,29,0,0,0,7-1.96v4.97a9.57,9.57,0,0,0,12.97,9l.44-.17A31.43,31.43,0,0,1,39.84,37.2Z"/><path fill="#cff09e" d="M7,14V52a2.006,2.006,0,0,0,2,2v7H5V5A2.006,2.006,0,0,1,7,3V4A2.006,2.006,0,0,0,9,6v6A2.006,2.006,0,0,0,7,14Z"/><rect width="8" height="4" x="3" y="7" fill="#fff" rx="2"/><path fill="#cff09e" d="M11,9a2.015,2.015,0,0,1-2,2H5A2.006,2.006,0,0,1,3,9,2.015,2.015,0,0,1,5,7,2.006,2.006,0,0,0,7,9Z"/></g><g data-name="Stroke Close copy"><path fill="#3b8686" d="M61.229,10.026,54.29,8.394A33.577,33.577,0,0,0,34.033,9.91l-.312.125a31.932,31.932,0,0,1-19.965,1.2l-2.246-.6A2.979,2.979,0,0,0,10,6.184V5A3.013,3.013,0,0,0,7,2,3,3,0,0,0,4,5V6.184a2.982,2.982,0,0,0,0,5.632V61a1,1,0,0,0,2,0V12H8V61a1,1,0,0,0,2,0V48.3l3.24.864a33.664,33.664,0,0,0,8.666,1.128,33.89,33.89,0,0,0,12.557-2.4l.312-.125a31.579,31.579,0,0,1,19.056-1.426l6.94,1.633A1,1,0,0,0,62,47V11A1,1,0,0,0,61.229,10.026ZM7,4a.976.976,0,0,1,.713.306A.965.965,0,0,1,8,5V6H6V5A1,1,0,0,1,7,4ZM5,8H9a1,1,0,0,1,0,2H5A1,1,0,0,1,5,8ZM60,45.737l-5.71-1.343A33.577,33.577,0,0,0,34.033,45.91l-.312.125a31.946,31.946,0,0,1-19.965,1.2l-3.756-1V12.3l3.24.864a33.968,33.968,0,0,0,21.223-1.274l.312-.125a31.579,31.579,0,0,1,19.056-1.426L60,11.792Z"/><path fill="#3b8686" d="M36.792,14.847l-2.486-.8a1,1,0,0,0-1.031.263l-3.026,3.177a28.606,28.606,0,0,1-16.4,8.523,1,1,0,0,0-.763,1.4l1.645,3.643A21.9,21.9,0,0,0,33.962,44H34a1,1,0,0,0,.724-.31l2.892-3.036A34.473,34.473,0,0,1,54.242,30.97a1,1,0,0,0,.626-1.466A32.074,32.074,0,0,0,36.792,14.847Zm-.624,24.427-2.576,2.7A19.91,19.91,0,0,1,16.557,30.232l-1.114-2.466a30.637,30.637,0,0,0,16.255-8.9l2.593-2.723,1.89.607a30.078,30.078,0,0,1,16.28,12.628A36.464,36.464,0,0,0,36.168,39.274Z"/><path fill="#3b8686" d="M34,22a7,7,0,1,0,7,7A7.008,7.008,0,0,0,34,22Zm0,12A4.99,4.99,0,0,1,29.9,26.158a15.985,15.985,0,0,1,7.645,6.368A4.981,4.981,0,0,1,34,34Zm4.7-3.351a17.96,17.96,0,0,0-7.178-5.964A4.936,4.936,0,0,1,34,24a5.006,5.006,0,0,1,5,5A4.935,4.935,0,0,1,38.7,30.649Z"/><path fill="#3b8686" d="M53.11,50.006l-1.787-.2a35.1,35.1,0,0,0-14.545,1.424L33.491,52.27a33.4,33.4,0,0,1-17.274.754,1,1,0,1,0-.434,1.952,35.39,35.39,0,0,0,18.31-.8l3.287-1.038A33.166,33.166,0,0,1,51.1,51.8l1.787.2a1,1,0,1,0,.22-1.988Z"/><path fill="#3b8686" d="M16.783,7.385a35.318,35.318,0,0,0,7.663.84A35.355,35.355,0,0,0,35.093,6.586L38.38,5.548A33.143,33.143,0,0,1,52.1,4.2l1.787.2a1,1,0,1,0,.22-1.987l-1.787-.2A35.083,35.083,0,0,0,37.778,3.641L34.491,4.679a33.394,33.394,0,0,1-17.274.754,1,1,0,1,0-.434,1.952Z"/><path fill="#3b8686" d="M53.11,54.006l-1.787-.2a35.1,35.1,0,0,0-14.545,1.424L33.491,56.27a1,1,0,0,0,.3,1.954.984.984,0,0,0,.3-.047l3.287-1.038A33.166,33.166,0,0,1,51.1,55.8l1.787.2a1,1,0,1,0,.22-1.988Z"/><path fill="#3b8686" d="M52.2,58.02a26.344,26.344,0,0,0-10.392,0,1,1,0,1,0,.392,1.96,24.392,24.392,0,0,1,9.608,0A.948.948,0,0,0,52,60a1,1,0,0,0,.2-1.98Z"/></g></svg>