<svg xmlns="http://www.w3.org/2000/svg"  viewBox="0 0 520 520" width="65px" height="65px"><path fill="#9bc9ff" d="M195.007,230c-2.263,1.199-149.086,79.065-150,79.55l150,79.55 c2.198-1.166,148.374-78.688,150-79.55L195.007,230z"/><path fill="#9bc9ff" d="M450.008,55c11.049,0,20,8.95,20,20s-8.951,20-20,20c-11.051,0-20-8.95-20-20 S438.957,55,450.008,55z"/><circle cx="100.007" cy="430" r="30" fill="#9bc9ff"/><path fill="#fff" d="M483.227,186.59c0,10.07-5.389,21.59-11.719,31.25c-2.598,3.96-7.684,10.89-10.711,13.66l-26,23.74 c-4.354,3.975-7.1,9.611-7.1,16.439c0.439,33.71,2.51,21.62-13.59,61.38c-21.189,52.33-36.291,26.95-67.99,40.431 c-26.221,11.12-17.109,25.72-17.109,32.26c0,21.24-24.43,39.08-42.211,62.29c-14.369,18.67-23.93,21.19-30.7,0.78 c-5.37-15.94-27.12-21.641-33.16-26c-33.69-24.46,51.459-20.141,13.7-75.801l108.371-57.47l-150-79.55l-49.23,26.109 c-3.26-1.609-5.77-3.97-7.92-7.84c-5.46-9.819-17.7-13.58-28-9.08c-3.75,1.641-8.03,2.851-13.56,2.851 c-13.36,0-16.7-0.34-19.18-4.25c-3.42-5.391-8.83-9.23-15.14-10.17c-6.71-1-10.88-3.44-15.61-8.681 c-12.53-13.859-19.29-63.18,22.31-73.52c29.3-7.271,3.91-22.59,3.91-41.49c0-4.7,3.3-6.99,4.76-11.01 c2.12-5.65,0.39-20.521,26.83-20.521c7.33,0,47.31,25.38,34.17,1.67c-11.35-20.35,3.41-27.34,7.21-27.34 c39.08,0,37.91-9.84,47.36-9.84c31.48,0-11.63,61.78,42.66,34.72c6.1-3.04,11.94-3.51,16.77-3.34c6.7,0.23,13.1-2.729,17.45-7.83 c8.861-10.37,25.82-23.67,37.57,7.931c25.57,68.68,47.141,22.21,59.131,43.97c3.77,6.86,10.99,11.08,18.818,11.189 c19.25,0.261,39.311,3.101,51.66,18.421c12.131,14.979-0.109,16.609,23.711,21.689C477.387,167.21,483.227,176.109,483.227,186.59 z"/><path fill="#fff" d="M226.587,309.55c0,3.98-0.74,7.78-2.08,11.29h-0.01c-13.27-13.37-33.86-21.97-56.99-21.97 c-0.75,0-1.49,0.02-2.24,0.04c4.36-12.21,16.03-20.94,29.74-20.94C212.447,277.97,226.587,292.11,226.587,309.55z"/><path fill="#fff" d="M224.498,320.84h0.01c-4.54,11.86-16.04,20.29-29.5,20.29c-17.44,0-31.58-14.14-31.58-31.58 c0-3.729,0.65-7.31,1.84-10.64c0.75-0.021,1.49-0.04,2.24-0.04C190.637,298.87,211.228,307.47,224.498,320.84z"/><path fill="#1e81ce" d="M447.508,375c4.139,0,7.5,3.36,7.5,7.5s-3.361,7.5-7.5,7.5c-4.141,0-7.5-3.36-7.5-7.5 S443.367,375,447.508,375z"/><path fill="#1e81ce" d="M387.508,50c4.139,0,7.5,3.359,7.5,7.5c0,4.14-3.361,7.5-7.5,7.5c-4.141,0-7.5-3.36-7.5-7.5 C380.008,53.359,383.367,50,387.508,50z"/><path fill="#1e81ce" d="M332.508,465c4.139,0,7.5,3.36,7.5,7.5s-3.361,7.5-7.5,7.5c-4.141,0-7.5-3.36-7.5-7.5 S328.367,465,332.508,465z"/><circle cx="182.507" cy="447.5" r="7.5" fill="#1e81ce"/><circle cx="67.507" cy="52.5" r="7.5" fill="#1e81ce"/><circle cx="52.507" cy="367.5" r="7.5" fill="#1e81ce"/><circle cx="47.507" cy="262.5" r="7.5" fill="#1e81ce"/><path fill="#1e81ce" d="M267.943,488.11c-0.668,0-1.338-0.055-2.012-0.169c-8.318-1.41-12.306-10.689-14.58-17.547 c-3.329-9.881-14.986-15.357-23.498-19.356c-3.32-1.561-5.943-2.792-7.843-4.163c-4.411-3.202-10.247-8.204-10.139-14.737 c0.116-7.043,6.713-11.509,13.698-16.237c7.453-5.045,15.901-10.763,17.609-19.657c1.354-7.044-1.567-15.932-8.68-26.417 c-1.55-2.285-0.955-5.395,1.331-6.944c2.285-1.549,5.395-0.955,6.945,1.331c8.779,12.94,12.124,24.035,10.225,33.917 c-2.491,12.965-13.21,20.222-21.824,26.052c-3.693,2.5-9.275,6.278-9.305,8.121c-0.003,0.214,0.135,2.21,6.004,6.472 c1.132,0.817,3.609,1.98,6.231,3.213c9.569,4.496,24.031,11.29,28.729,25.237c3.168,9.549,5.979,10.724,6.766,10.857 c1.068,0.175,5.336-0.232,15.234-13.092c5.379-7.022,11.273-13.479,16.975-19.722c12.984-14.217,24.197-26.496,24.197-39.519 c0-0.659-0.262-1.944-0.514-3.187c-1.51-7.445-4.654-22.936,20.672-33.677c11.391-4.844,21.002-5.062,28.725-5.237 c14.75-0.334,23.652-0.536,36.582-32.467c2.766-6.828,4.996-12.133,6.789-16.396c6.994-16.631,6.994-16.631,6.633-32.584 c-0.064-2.927-0.143-6.355-0.197-10.458c0-0.022,0-0.134,0-0.155c-0.098-7.561,3.084-14.89,8.729-20.043l26-23.739 c0.498-0.456,0.92-0.885,1.287-1.308c3.035-3.494,6.014-7.438,8.613-11.401c7.029-10.728,10.9-20.853,10.9-28.509 c0-6.048-1.926-14.499-18.584-18.061c-15.723-3.353-18.594-5.82-20.947-13.17c-0.787-2.461-1.766-5.523-5.604-10.263 c-11.436-14.185-30.602-16.335-47.842-16.567c-9.674-0.136-18.539-5.417-23.135-13.782c-2.492-4.523-4.393-4.354-11.271-2.989 c-16.027,3.176-31.771,2.385-48.162-41.644c-3.688-9.916-8.064-15.587-12.662-16.402c-5.963-1.057-12.85,5.797-16.42,9.976 c-5.432,6.367-13.24,9.851-21.424,9.579c-3.496-0.125-8.785,0.036-14.369,2.818c-15.218,7.585-24.714,9.227-30.784,5.324 c-6.814-4.381-6.505-13.37-6.206-22.063c0.21-6.109,0.448-13.034-2.164-15.738c-0.411-0.425-1.661-1.719-5.736-1.719 c-1.751,0-2.733,0.486-5.313,1.893c-5.799,3.162-14.558,7.938-41.97,7.947c-0.626,0.092-3.859,1.163-5.521,4.373 c-1.91,3.687-1.01,9.058,2.601,15.531c1.557,2.81,5.675,10.24,1.31,15.009c-4.924,5.378-14.164,1.658-28.831-4.854 c-4.034-1.791-9.558-4.244-11.111-4.392c-18.159,0.003-19.673,7.082-21.009,13.328c-0.299,1.398-0.581,2.719-1.044,3.952 c-0.724,1.993-1.742,3.582-2.64,4.984c-1.216,1.898-1.801,2.873-1.801,4.269c0,5.417,2.719,10.828,5.349,16.061 c3.29,6.545,6.691,13.313,3.726,19.762c-2.251,4.896-7.583,8.238-16.781,10.521c-13.542,3.366-22.338,11.398-26.144,23.874 c-5.056,16.575,0.539,35.024,6.339,41.44c4.059,4.496,7.248,6.284,12.638,7.088c7.534,1.122,14.322,5.655,18.625,12.437 c0.925,1.457,2.289,1.929,14.958,1.929c4.148,0,7.712-0.75,11.557-2.432c12.901-5.637,27.679-0.809,34.374,11.231 c1.578,2.841,3.301,4.57,5.764,5.786c2.476,1.223,3.492,4.222,2.27,6.697s-4.221,3.492-6.697,2.27 c-4.306-2.126-7.508-5.271-10.077-9.895c-4.107-7.388-13.606-10.431-21.627-6.927c-5.098,2.229-10.043,3.269-15.562,3.269 c-12.806,0-19.234,0-23.402-6.572c-2.746-4.327-6.994-7.208-11.654-7.902c-7.741-1.153-12.952-4.035-18.585-10.275 c-8.65-9.568-14.355-31.813-8.483-51.062c3.371-11.05,11.884-25.339,33.299-30.661c7.957-1.975,9.717-4.149,10.105-4.993 c0.955-2.078-1.348-6.661-3.576-11.094c-3.006-5.982-6.414-12.763-6.414-20.551c0-4.386,1.875-7.312,3.381-9.663 c0.707-1.103,1.316-2.055,1.679-3.054c0.22-0.587,0.427-1.555,0.646-2.579c1.474-6.893,4.541-21.234,30.884-21.234 c3.108,0,7.306,1.8,15.073,5.249c3.755,1.668,11.524,5.117,15.923,6.217c-0.286-0.64-0.674-1.424-1.2-2.372 c-7.022-12.591-5.114-20.997-2.276-25.829c3.822-6.509,10.529-8.935,13.859-8.935c24.923,0,32.348-4.048,37.261-6.727 c2.808-1.53,5.71-3.113,10.1-3.113c5.52,0,9.87,1.605,12.928,4.771c5.561,5.755,5.245,14.933,4.966,23.03 c-0.174,5.064-0.413,12,1.62,13.308c0.938,0.603,5.218,1.962,20.916-5.863c5.722-2.852,11.994-4.113,19.176-3.862 c5.114,0.198,10.026-2.039,13.469-6.077c8.691-10.172,17.602-14.779,25.775-13.33c8.398,1.49,15.225,9.148,20.287,22.762 c14.779,39.697,26.5,37.372,36.844,35.322c6.688-1.327,15.85-3.144,21.979,7.978c2.869,5.224,8.43,8.518,14.51,8.604 c18.42,0.249,41.375,2.779,55.482,20.282c5.012,6.188,6.42,10.588,7.352,13.5c0.717,2.239,0.828,2.38,1.484,2.809 c2.168,1.416,7.9,2.749,12.025,3.629c21.9,4.682,26.496,17.723,26.496,27.84c0,12.28-6.818,25.262-12.537,33.99 c-2.842,4.335-6.102,8.649-9.426,12.479c-0.621,0.713-1.303,1.409-2.09,2.129l-26.006,23.745c-3.539,3.23-5.531,7.82-5.471,12.593 c0,0.021,0,0.133,0,0.154c0.053,4.001,0.131,7.396,0.195,10.297c0.402,17.75,0.264,18.436-7.412,36.688 c-1.781,4.234-3.998,9.506-6.738,16.272c-7.01,17.309-13.754,27.496-21.869,33.032c-7.791,5.316-15.547,5.492-23.756,5.679 c-7.578,0.172-15.414,0.35-25.043,4.444c-17.809,7.553-16.199,15.484-14.779,22.482c0.367,1.807,0.713,3.513,0.713,5.176 c0,16.901-13.023,31.163-26.813,46.262c-5.557,6.087-11.305,12.38-16.43,19.069C284.568,479.134,276.5,488.11,267.943,488.11z"/><path fill="#1e81ce" d="M211.472,150.343c-3.035,0-5.558-0.687-7.668-2.044c-6.814-4.381-6.505-13.369-6.206-22.063 c0.21-6.109,0.449-13.034-2.164-15.738c-0.411-0.425-1.661-1.719-5.736-1.719c-1.75,0-2.731,0.486-5.308,1.893 c-5.797,3.162-14.553,7.939-41.974,7.948c-0.625,0.091-3.858,1.162-5.521,4.372c-1.91,3.687-1.011,9.058,2.601,15.532 c1.345,2.411,0.48,5.457-1.931,6.802c-2.412,1.346-5.458,0.48-6.802-1.931c-7.029-12.603-5.122-21.009-2.283-25.842 c3.822-6.509,10.53-8.934,13.86-8.934c24.93,0,32.352-4.049,37.263-6.728c2.806-1.53,5.707-3.113,10.097-3.113 c5.52,0,9.87,1.605,12.928,4.771c5.561,5.755,5.245,14.934,4.966,23.03c-0.174,5.064-0.413,12.001,1.62,13.308 c0.938,0.605,5.218,1.962,20.916-5.863c2.472-1.229,5.474-0.227,6.706,2.245c1.231,2.472,0.227,5.474-2.245,6.705 C224.66,147.923,217.167,150.343,211.472,150.343z"/><path fill="#1e81ce" d="M433.76,213.84c-1.459,0-2.906-0.637-3.895-1.862c-11.428-14.176-30.594-16.325-47.836-16.559 c-9.66-0.136-18.523-5.414-23.131-13.776c-2.496-4.527-4.396-4.361-11.275-2.995c-16.035,3.178-31.771,2.383-48.162-41.644 c-3.688-9.917-8.066-15.589-12.662-16.402c-5.961-1.057-12.842,5.796-16.408,9.974c-1.793,2.103-4.947,2.351-7.049,0.558 c-2.102-1.792-2.35-4.948-0.559-7.049c8.678-10.168,17.596-14.774,25.758-13.329c8.402,1.487,15.229,9.146,20.293,22.762 c14.779,39.695,26.498,37.373,36.844,35.322c6.689-1.326,15.85-3.143,21.979,7.978c2.877,5.222,8.438,8.519,14.512,8.604 c18.418,0.249,41.373,2.779,55.482,20.281c1.732,2.15,1.395,5.298-0.756,7.031C435.971,213.478,434.861,213.84,433.76,213.84z"/><path fill="#1e81ce" d="M224.498,325.84c-1.286,0-2.571-0.493-3.549-1.478c-12.925-13.023-32.404-20.492-53.441-20.492 c-0.704,0-1.399,0.019-2.104,0.038c-2.788,0.054-5.06-2.102-5.135-4.861c-0.076-2.761,2.101-5.06,4.861-5.135 c0.796-0.021,1.581-0.042,2.377-0.042c23.684,0,45.75,8.546,60.539,23.447c1.945,1.96,1.933,5.126-0.026,7.071 C227.045,325.356,225.771,325.84,224.498,325.84z"/><path fill="#1e81ce" d="M195.007,346.13c-20.17,0-36.58-16.41-36.58-36.58c0-4.219,0.717-8.364,2.131-12.322 c5.182-14.509,19.025-24.258,34.449-24.258c20.17,0,36.58,16.41,36.58,36.58c0,4.487-0.811,8.886-2.409,13.073 C223.796,336.685,210.064,346.13,195.007,346.13z M195.007,282.97c-11.208,0-21.268,7.082-25.031,17.622 c-1.028,2.876-1.549,5.89-1.549,8.958c0,14.656,11.924,26.58,26.58,26.58c10.942,0,20.92-6.863,24.831-17.077 c1.16-3.04,1.75-6.238,1.75-9.503C221.587,294.894,209.664,282.97,195.007,282.97z"/><path fill="#1e81ce" d="M195.007,394.1c-0.805,0-1.61-0.194-2.343-0.583l-150-79.55c-1.635-0.867-2.657-2.566-2.657-4.417 s1.022-3.55,2.657-4.417l150-79.55c1.465-0.777,3.22-0.777,4.686-0.001l150,79.551c1.635,0.867,2.658,2.566,2.658,4.417 s-1.023,3.55-2.658,4.417l-150,79.55C196.618,393.905,195.813,394.1,195.007,394.1z M55.679,309.55l139.328,73.89l139.329-73.89 l-139.329-73.891L55.679,309.55z"/><path fill="#1e81ce" d="M100.007,465c-19.299,0-35-15.701-35-35s15.701-35,35-35s35,15.701,35,35S119.306,465,100.007,465z M100.007,405c-13.785,0-25,11.215-25,25s11.215,25,25,25s25-11.215,25-25S113.792,405,100.007,405z"/><path fill="#1e81ce" d="M450.008,100c-13.785,0-25-11.215-25-25s11.215-25,25-25s25,11.215,25,25S463.793,100,450.008,100z M450.008,60c-8.271,0-15,6.729-15,15c0,8.271,6.729,15,15,15s15-6.729,15-15C465.008,66.729,458.279,60,450.008,60z"/><path fill="#9bc9ff" d="M195.007,230c-2.263,1.199-149.086,79.065-150,79.55l150,79.55 c2.198-1.166,148.374-78.688,150-79.55L195.007,230z"/><path fill="#9bc9ff" d="M450.008,55c11.049,0,20,8.95,20,20s-8.951,20-20,20c-11.051,0-20-8.95-20-20 S438.957,55,450.008,55z"/><circle cx="100.007" cy="430" r="30" fill="#9bc9ff"/><path fill="#fff" d="M483.227,186.59c0,10.07-5.389,21.59-11.719,31.25c-2.598,3.96-7.684,10.89-10.711,13.66l-26,23.74 c-4.354,3.975-7.1,9.611-7.1,16.439c0.439,33.71,2.51,21.62-13.59,61.38c-21.189,52.33-36.291,26.95-67.99,40.431 c-26.221,11.12-17.109,25.72-17.109,32.26c0,21.24-24.43,39.08-42.211,62.29c-14.369,18.67-23.93,21.19-30.7,0.78 c-5.37-15.94-27.12-21.641-33.16-26c-33.69-24.46,51.459-20.141,13.7-75.801l108.371-57.47l-150-79.55l-49.23,26.109 c-3.26-1.609-5.77-3.97-7.92-7.84c-5.46-9.819-17.7-13.58-28-9.08c-3.75,1.641-8.03,2.851-13.56,2.851 c-13.36,0-16.7-0.34-19.18-4.25c-3.42-5.391-8.83-9.23-15.14-10.17c-6.71-1-10.88-3.44-15.61-8.681 c-12.53-13.859-19.29-63.18,22.31-73.52c29.3-7.271,3.91-22.59,3.91-41.49c0-4.7,3.3-6.99,4.76-11.01 c2.12-5.65,0.39-20.521,26.83-20.521c7.33,0,47.31,25.38,34.17,1.67c-11.35-20.35,3.41-27.34,7.21-27.34 c39.08,0,37.91-9.84,47.36-9.84c31.48,0-11.63,61.78,42.66,34.72c6.1-3.04,11.94-3.51,16.77-3.34c6.7,0.23,13.1-2.729,17.45-7.83 c8.861-10.37,25.82-23.67,37.57,7.931c25.57,68.68,47.141,22.21,59.131,43.97c3.77,6.86,10.99,11.08,18.818,11.189 c19.25,0.261,39.311,3.101,51.66,18.421c12.131,14.979-0.109,16.609,23.711,21.689C477.387,167.21,483.227,176.109,483.227,186.59 z"/><path fill="#fff" d="M226.587,309.55c0,3.98-0.74,7.78-2.08,11.29h-0.01c-13.27-13.37-33.86-21.97-56.99-21.97 c-0.75,0-1.49,0.02-2.24,0.04c4.36-12.21,16.03-20.94,29.74-20.94C212.447,277.97,226.587,292.11,226.587,309.55z"/><path fill="#fff" d="M224.498,320.84h0.01c-4.54,11.86-16.04,20.29-29.5,20.29c-17.44,0-31.58-14.14-31.58-31.58 c0-3.729,0.65-7.31,1.84-10.64c0.75-0.021,1.49-0.04,2.24-0.04C190.637,298.87,211.228,307.47,224.498,320.84z"/><path fill="#1e81ce" d="M447.508,375c4.139,0,7.5,3.36,7.5,7.5s-3.361,7.5-7.5,7.5c-4.141,0-7.5-3.36-7.5-7.5 S443.367,375,447.508,375z"/><path fill="#1e81ce" d="M387.508,50c4.139,0,7.5,3.359,7.5,7.5c0,4.14-3.361,7.5-7.5,7.5c-4.141,0-7.5-3.36-7.5-7.5 C380.008,53.359,383.367,50,387.508,50z"/><path fill="#1e81ce" d="M332.508,465c4.139,0,7.5,3.36,7.5,7.5s-3.361,7.5-7.5,7.5c-4.141,0-7.5-3.36-7.5-7.5 S328.367,465,332.508,465z"/><circle cx="182.507" cy="447.5" r="7.5" fill="#1e81ce"/><circle cx="67.507" cy="52.5" r="7.5" fill="#1e81ce"/><circle cx="52.507" cy="367.5" r="7.5" fill="#1e81ce"/><circle cx="47.507" cy="262.5" r="7.5" fill="#1e81ce"/><path fill="#1e81ce" d="M267.943,488.11c-0.668,0-1.338-0.055-2.012-0.169c-8.318-1.41-12.306-10.689-14.58-17.547 c-3.329-9.881-14.986-15.357-23.498-19.356c-3.32-1.561-5.943-2.792-7.843-4.163c-4.411-3.202-10.247-8.204-10.139-14.737 c0.116-7.043,6.713-11.509,13.698-16.237c7.453-5.045,15.901-10.763,17.609-19.657c1.354-7.044-1.567-15.932-8.68-26.417 c-1.55-2.285-0.955-5.395,1.331-6.944c2.285-1.549,5.395-0.955,6.945,1.331c8.779,12.94,12.124,24.035,10.225,33.917 c-2.491,12.965-13.21,20.222-21.824,26.052c-3.693,2.5-9.275,6.278-9.305,8.121c-0.003,0.214,0.135,2.21,6.004,6.472 c1.132,0.817,3.609,1.98,6.231,3.213c9.569,4.496,24.031,11.29,28.729,25.237c3.168,9.549,5.979,10.724,6.766,10.857 c1.068,0.175,5.336-0.232,15.234-13.092c5.379-7.022,11.273-13.479,16.975-19.722c12.984-14.217,24.197-26.496,24.197-39.519 c0-0.659-0.262-1.944-0.514-3.187c-1.51-7.445-4.654-22.936,20.672-33.677c11.391-4.844,21.002-5.062,28.725-5.237 c14.75-0.334,23.652-0.536,36.582-32.467c2.766-6.828,4.996-12.133,6.789-16.396c6.994-16.631,6.994-16.631,6.633-32.584 c-0.064-2.927-0.143-6.355-0.197-10.458c0-0.022,0-0.134,0-0.155c-0.098-7.561,3.084-14.89,8.729-20.043l26-23.739 c0.498-0.456,0.92-0.885,1.287-1.308c3.035-3.494,6.014-7.438,8.613-11.401c7.029-10.728,10.9-20.853,10.9-28.509 c0-6.048-1.926-14.499-18.584-18.061c-15.723-3.353-18.594-5.82-20.947-13.17c-0.787-2.461-1.766-5.523-5.604-10.263 c-11.436-14.185-30.602-16.335-47.842-16.567c-9.674-0.136-18.539-5.417-23.135-13.782c-2.492-4.523-4.393-4.354-11.271-2.989 c-16.027,3.176-31.771,2.385-48.162-41.644c-3.688-9.916-8.064-15.587-12.662-16.402c-5.963-1.057-12.85,5.797-16.42,9.976 c-5.432,6.367-13.24,9.851-21.424,9.579c-3.496-0.125-8.785,0.036-14.369,2.818c-15.218,7.585-24.714,9.227-30.784,5.324 c-6.814-4.381-6.505-13.37-6.206-22.063c0.21-6.109,0.448-13.034-2.164-15.738c-0.411-0.425-1.661-1.719-5.736-1.719 c-1.751,0-2.733,0.486-5.313,1.893c-5.799,3.162-14.558,7.938-41.97,7.947c-0.626,0.092-3.859,1.163-5.521,4.373 c-1.91,3.687-1.01,9.058,2.601,15.531c1.557,2.81,5.675,10.24,1.31,15.009c-4.924,5.378-14.164,1.658-28.831-4.854 c-4.034-1.791-9.558-4.244-11.111-4.392c-18.159,0.003-19.673,7.082-21.009,13.328c-0.299,1.398-0.581,2.719-1.044,3.952 c-0.724,1.993-1.742,3.582-2.64,4.984c-1.216,1.898-1.801,2.873-1.801,4.269c0,5.417,2.719,10.828,5.349,16.061 c3.29,6.545,6.691,13.313,3.726,19.762c-2.251,4.896-7.583,8.238-16.781,10.521c-13.542,3.366-22.338,11.398-26.144,23.874 c-5.056,16.575,0.539,35.024,6.339,41.44c4.059,4.496,7.248,6.284,12.638,7.088c7.534,1.122,14.322,5.655,18.625,12.437 c0.925,1.457,2.289,1.929,14.958,1.929c4.148,0,7.712-0.75,11.557-2.432c12.901-5.637,27.679-0.809,34.374,11.231 c1.578,2.841,3.301,4.57,5.764,5.786c2.476,1.223,3.492,4.222,2.27,6.697s-4.221,3.492-6.697,2.27 c-4.306-2.126-7.508-5.271-10.077-9.895c-4.107-7.388-13.606-10.431-21.627-6.927c-5.098,2.229-10.043,3.269-15.562,3.269 c-12.806,0-19.234,0-23.402-6.572c-2.746-4.327-6.994-7.208-11.654-7.902c-7.741-1.153-12.952-4.035-18.585-10.275 c-8.65-9.568-14.355-31.813-8.483-51.062c3.371-11.05,11.884-25.339,33.299-30.661c7.957-1.975,9.717-4.149,10.105-4.993 c0.955-2.078-1.348-6.661-3.576-11.094c-3.006-5.982-6.414-12.763-6.414-20.551c0-4.386,1.875-7.312,3.381-9.663 c0.707-1.103,1.316-2.055,1.679-3.054c0.22-0.587,0.427-1.555,0.646-2.579c1.474-6.893,4.541-21.234,30.884-21.234 c3.108,0,7.306,1.8,15.073,5.249c3.755,1.668,11.524,5.117,15.923,6.217c-0.286-0.64-0.674-1.424-1.2-2.372 c-7.022-12.591-5.114-20.997-2.276-25.829c3.822-6.509,10.529-8.935,13.859-8.935c24.923,0,32.348-4.048,37.261-6.727 c2.808-1.53,5.71-3.113,10.1-3.113c5.52,0,9.87,1.605,12.928,4.771c5.561,5.755,5.245,14.933,4.966,23.03 c-0.174,5.064-0.413,12,1.62,13.308c0.938,0.603,5.218,1.962,20.916-5.863c5.722-2.852,11.994-4.113,19.176-3.862 c5.114,0.198,10.026-2.039,13.469-6.077c8.691-10.172,17.602-14.779,25.775-13.33c8.398,1.49,15.225,9.148,20.287,22.762 c14.779,39.697,26.5,37.372,36.844,35.322c6.688-1.327,15.85-3.144,21.979,7.978c2.869,5.224,8.43,8.518,14.51,8.604 c18.42,0.249,41.375,2.779,55.482,20.282c5.012,6.188,6.42,10.588,7.352,13.5c0.717,2.239,0.828,2.38,1.484,2.809 c2.168,1.416,7.9,2.749,12.025,3.629c21.9,4.682,26.496,17.723,26.496,27.84c0,12.28-6.818,25.262-12.537,33.99 c-2.842,4.335-6.102,8.649-9.426,12.479c-0.621,0.713-1.303,1.409-2.09,2.129l-26.006,23.745c-3.539,3.23-5.531,7.82-5.471,12.593 c0,0.021,0,0.133,0,0.154c0.053,4.001,0.131,7.396,0.195,10.297c0.402,17.75,0.264,18.436-7.412,36.688 c-1.781,4.234-3.998,9.506-6.738,16.272c-7.01,17.309-13.754,27.496-21.869,33.032c-7.791,5.316-15.547,5.492-23.756,5.679 c-7.578,0.172-15.414,0.35-25.043,4.444c-17.809,7.553-16.199,15.484-14.779,22.482c0.367,1.807,0.713,3.513,0.713,5.176 c0,16.901-13.023,31.163-26.813,46.262c-5.557,6.087-11.305,12.38-16.43,19.069C284.568,479.134,276.5,488.11,267.943,488.11z"/><path fill="#1e81ce" d="M211.472,150.343c-3.035,0-5.558-0.687-7.668-2.044c-6.814-4.381-6.505-13.369-6.206-22.063 c0.21-6.109,0.449-13.034-2.164-15.738c-0.411-0.425-1.661-1.719-5.736-1.719c-1.75,0-2.731,0.486-5.308,1.893 c-5.797,3.162-14.553,7.939-41.974,7.948c-0.625,0.091-3.858,1.162-5.521,4.372c-1.91,3.687-1.011,9.058,2.601,15.532 c1.345,2.411,0.48,5.457-1.931,6.802c-2.412,1.346-5.458,0.48-6.802-1.931c-7.029-12.603-5.122-21.009-2.283-25.842 c3.822-6.509,10.53-8.934,13.86-8.934c24.93,0,32.352-4.049,37.263-6.728c2.806-1.53,5.707-3.113,10.097-3.113 c5.52,0,9.87,1.605,12.928,4.771c5.561,5.755,5.245,14.934,4.966,23.03c-0.174,5.064-0.413,12.001,1.62,13.308 c0.938,0.605,5.218,1.962,20.916-5.863c2.472-1.229,5.474-0.227,6.706,2.245c1.231,2.472,0.227,5.474-2.245,6.705 C224.66,147.923,217.167,150.343,211.472,150.343z"/><path fill="#1e81ce" d="M433.76,213.84c-1.459,0-2.906-0.637-3.895-1.862c-11.428-14.176-30.594-16.325-47.836-16.559 c-9.66-0.136-18.523-5.414-23.131-13.776c-2.496-4.527-4.396-4.361-11.275-2.995c-16.035,3.178-31.771,2.383-48.162-41.644 c-3.688-9.917-8.066-15.589-12.662-16.402c-5.961-1.057-12.842,5.796-16.408,9.974c-1.793,2.103-4.947,2.351-7.049,0.558 c-2.102-1.792-2.35-4.948-0.559-7.049c8.678-10.168,17.596-14.774,25.758-13.329c8.402,1.487,15.229,9.146,20.293,22.762 c14.779,39.695,26.498,37.373,36.844,35.322c6.689-1.326,15.85-3.143,21.979,7.978c2.877,5.222,8.438,8.519,14.512,8.604 c18.418,0.249,41.373,2.779,55.482,20.281c1.732,2.15,1.395,5.298-0.756,7.031C435.971,213.478,434.861,213.84,433.76,213.84z"/><path fill="#1e81ce" d="M224.498,325.84c-1.286,0-2.571-0.493-3.549-1.478c-12.925-13.023-32.404-20.492-53.441-20.492 c-0.704,0-1.399,0.019-2.104,0.038c-2.788,0.054-5.06-2.102-5.135-4.861c-0.076-2.761,2.101-5.06,4.861-5.135 c0.796-0.021,1.581-0.042,2.377-0.042c23.684,0,45.75,8.546,60.539,23.447c1.945,1.96,1.933,5.126-0.026,7.071 C227.045,325.356,225.771,325.84,224.498,325.84z"/><path fill="#1e81ce" d="M195.007,346.13c-20.17,0-36.58-16.41-36.58-36.58c0-4.219,0.717-8.364,2.131-12.322 c5.182-14.509,19.025-24.258,34.449-24.258c20.17,0,36.58,16.41,36.58,36.58c0,4.487-0.811,8.886-2.409,13.073 C223.796,336.685,210.064,346.13,195.007,346.13z M195.007,282.97c-11.208,0-21.268,7.082-25.031,17.622 c-1.028,2.876-1.549,5.89-1.549,8.958c0,14.656,11.924,26.58,26.58,26.58c10.942,0,20.92-6.863,24.831-17.077 c1.16-3.04,1.75-6.238,1.75-9.503C221.587,294.894,209.664,282.97,195.007,282.97z"/><path fill="#1e81ce" d="M195.007,394.1c-0.805,0-1.61-0.194-2.343-0.583l-150-79.55c-1.635-0.867-2.657-2.566-2.657-4.417 s1.022-3.55,2.657-4.417l150-79.55c1.465-0.777,3.22-0.777,4.686-0.001l150,79.551c1.635,0.867,2.658,2.566,2.658,4.417 s-1.023,3.55-2.658,4.417l-150,79.55C196.618,393.905,195.813,394.1,195.007,394.1z M55.679,309.55l139.328,73.89l139.329-73.89 l-139.329-73.891L55.679,309.55z"/><path fill="#1e81ce" d="M100.007,465c-19.299,0-35-15.701-35-35s15.701-35,35-35s35,15.701,35,35S119.306,465,100.007,465z M100.007,405c-13.785,0-25,11.215-25,25s11.215,25,25,25s25-11.215,25-25S113.792,405,100.007,405z"/><path fill="#1e81ce" d="M450.008,100c-13.785,0-25-11.215-25-25s11.215-25,25-25s25,11.215,25,25S463.793,100,450.008,100z M450.008,60c-8.271,0-15,6.729-15,15c0,8.271,6.729,15,15,15s15-6.729,15-15C465.008,66.729,458.279,60,450.008,60z"/></svg>