<svg height="512" viewBox="0 0 64 64" width="512" xmlns="http://www.w3.org/2000/svg"><g fill-rule="evenodd"><path d="m48 64h-32a16.0007 16.0007 0 0 1 -16-16v-32a16.0007 16.0007 0 0 1 16-16h32a16 16 0 0 1 16 16v32a16 16 0 0 1 -16 16" fill="#ff3a55"/><path d="m30 18h18a9.0006 9.0006 0 0 0 .92-17.954c-.306-.017-.609-.046-.92-.046h-32a16.0007 16.0007 0 0 0 -16 16v32a30.0007 30.0007 0 0 1 30-30" fill="#ff796c"/><path d="m48 32a16 16 0 1 0 16 16v-32a16 16 0 0 1 -16 16" fill="#e00047"/></g><circle cx="44.5" cy="19.5" fill="#fff" r="2.5"/><path d="m32 24a8 8 0 1 1 -8 8 8.0042 8.0042 0 0 1 8-8zm0-4a12 12 0 1 1 -12 12 12.0057 12.0057 0 0 1 12-12z" fill="#fff" fill-rule="evenodd"/><path d="m52 22a10 10 0 0 0 -10-10h-20a10 10 0 0 0 -10 10v20a10 10 0 0 0 10 10h20a10 10 0 0 0 10-10zm4 0a14 14 0 0 0 -14-14h-20a14 14 0 0 0 -14 14v20a14 14 0 0 0 14 14h20a14 14 0 0 0 14-14z" fill="#fff" fill-rule="evenodd"/></svg>