<?xml version="1.0" standalone="no"?>
<!DOCTYPE svg PUBLIC "-//W3C//DTD SVG 20010904//EN"
 "http://www.w3.org/TR/2001/REC-SVG-20010904/DTD/svg10.dtd">
<svg version="1.0" xmlns="http://www.w3.org/2000/svg"
 width="1460.000000pt" height="1251.000000pt" viewBox="0 0 1460.000000 1251.000000"
 preserveAspectRatio="xMidYMid meet">

<g transform="translate(0.000000,1251.000000) scale(0.100000,-0.100000)"
fill="#000000" stroke="none">
<path d="M4357 11849 c-91 -21 -179 -96 -220 -187 -18 -41 -21 -71 -25 -239
l-4 -193 23 0 c216 -1 639 -39 894 -81 2288 -376 4150 -2085 4700 -4314 104
-419 149 -737 171 -1202 l7 -143 171 0 c167 0 172 1 231 28 68 33 127 92 159
161 l21 46 3 1122 2 1122 -67 158 c-37 87 -115 253 -173 368 -539 1065 -1344
1969 -2342 2628 -420 278 -889 519 -1346 693 l-117 44 -1025 -1 c-564 -1
-1042 -5 -1063 -10z"/>
<path d="M8577 11843 c759 -533 1252 -1006 1794 -1718 l114 -150 3 160 c1 88
1 457 0 820 l-3 660 -26 55 c-14 30 -44 72 -65 94 -22 21 -64 51 -94 65 l-55
26 -845 2 c-772 2 -843 1 -823 -14z"/>
<path d="M4110 9736 l0 -514 73 -6 c313 -23 390 -30 522 -53 498 -83 974 -264
1400 -532 393 -247 779 -609 1057 -991 421 -581 675 -1303 705 -2002 l6 -148
540 0 540 0 -7 158 c-47 1104 -460 2127 -1201 2972 -51 58 -167 177 -257 266
-652 636 -1504 1088 -2393 1268 -283 58 -626 96 -857 96 l-128 0 0 -514z"/>
<path d="M4112 6989 l3 -1254 29 -63 c33 -72 85 -123 160 -158 l51 -24 1288 0
1288 0 -5 58 c-3 31 -8 95 -11 142 -19 268 -97 580 -217 860 -206 482 -573
921 -1019 1218 -428 285 -920 448 -1417 469 l-152 6 2 -1254z"/>
<path d="M6404 4520 c-292 -24 -575 -122 -814 -281 -191 -126 -394 -358 -501
-571 -149 -296 -208 -647 -169 -993 83 -718 579 -1258 1282 -1396 208 -40 511
-44 698 -9 29 5 60 10 70 10 9 0 111 -105 232 -242 119 -134 229 -253 245
-264 114 -85 186 -95 622 -92 l354 3 -403 439 -403 440 49 40 c86 69 217 210
283 302 119 167 217 399 261 612 92 453 8 930 -226 1289 -154 238 -337 402
-594 533 -294 149 -623 210 -986 180z m431 -639 c330 -87 538 -322 622 -703
26 -120 26 -467 -1 -588 -51 -232 -155 -421 -299 -540 -79 -65 -216 -132 -332
-161 -127 -32 -360 -33 -487 -1 -305 75 -495 253 -600 562 -102 300 -84 709
42 978 122 260 322 412 613 468 106 20 339 12 442 -15z"/>
<path d="M1110 2885 l0 -1605 331 0 330 0 -3 1054 c-2 580 -2 1053 -1 1052 1
-1 194 -373 429 -827 295 -571 437 -836 462 -862 64 -67 101 -81 233 -85 148
-5 208 10 273 70 41 38 95 138 473 873 234 457 429 833 432 837 3 4 5 -470 3
-1052 l-2 -1060 325 0 325 0 0 1605 0 1605 -345 0 c-398 0 -398 0 -452 -87
-48 -77 -907 -1778 -953 -1888 -23 -55 -45 -103 -49 -108 -4 -4 -22 30 -40 75
-45 113 -946 1894 -980 1938 -54 70 -56 70 -443 70 l-348 0 0 -1605z"/>
<path d="M8160 4195 l0 -295 430 0 430 0 0 -1310 0 -1310 375 0 375 0 0 1310
0 1310 430 0 430 0 0 295 0 295 -1235 0 -1235 0 0 -295z"/>
<path d="M10980 4195 l0 -295 430 0 430 0 0 -1310 0 -1310 370 0 370 0 0 1310
0 1310 455 0 455 0 0 295 0 295 -1255 0 -1255 0 0 -295z"/>
</g>
</svg>
