<svg height="512" viewBox="0 0 64 64" width="512" xmlns="http://www.w3.org/2000/svg"><g fill-rule="evenodd"><path d="m48 64h-32a16.0007 16.0007 0 0 1 -16-16v-32a16.0007 16.0007 0 0 1 16-16h32a16 16 0 0 1 16 16v32a16 16 0 0 1 -16 16" fill="#1ed764"/><path d="m30 18h18a9.0006 9.0006 0 0 0 .92-17.954c-.306-.017-.609-.046-.92-.046h-32a16.0007 16.0007 0 0 0 -16 16v32a30.0007 30.0007 0 0 1 30-30" fill="#37f07d"/><path d="m48 32a16 16 0 1 0 16 16v-32a16 16 0 0 1 -16 16" fill="#05be4b"/></g><path d="m46.591 47.049a1.9816 1.9816 0 0 1 -2.726.66c-7.469-4.565-16.87-5.596-27.941-3.067a1.9817 1.9817 0 0 1 -.882-3.864c12.115-2.77 22.508-1.578 30.891 3.545a1.9835 1.9835 0 0 1 .658 2.726zm3.891-8.661a2.48 2.48 0 0 1 -3.411.817c-8.547-5.254-21.58-6.775-31.692-3.706a2.4795 2.4795 0 1 1 -1.441-4.745c11.551-3.505 25.912-1.807 35.728 4.225a2.4794 2.4794 0 0 1 .816 3.409zm.336-9.017c-10.252-6.089-27.163-6.649-36.95-3.678a2.9746 2.9746 0 1 1 -1.727-5.693c11.235-3.41 29.911-2.751 41.713 4.255a2.9745 2.9745 0 0 1 -3.036 5.116z" fill="#fff"/></svg>